<svg width="40" height="40" viewBox="0 0 40 40" fill="none" xmlns="http://www.w3.org/2000/svg">
    <circle cx="19.6499" cy="19.65" r="15.15" stroke="#F1F1EF" stroke-width="3"/>
    <path d="M24.7764 16.0624C25.2019 15.6368 25.2019 14.9458 24.7764 14.5203C24.3509 14.0948 23.6598 14.0948 23.2343 14.5203L19.6498 18.1082L16.0619 14.5237C15.6364 14.0982 14.9454 14.0982 14.5199 14.5237C14.0944 14.9492 14.0944 15.6402 14.5199 16.0658L18.1078 19.6503L14.5233 23.2382C14.0978 23.6637 14.0978 24.3547 14.5233 24.7802C14.9488 25.2057 15.6398 25.2057 16.0653 24.7802L19.6498 21.1923L23.2377 24.7768C23.6633 25.2023 24.3543 25.2023 24.7798 24.7768C25.2053 24.3513 25.2053 23.6603 24.7798 23.2348L21.1919 19.6503L24.7764 16.0624Z" fill="#F1F1EF" stroke="#F1F1EF"/>
</svg>
